<svg width="324" height="203" viewBox="0 0 324 203" fill="none" xmlns="http://www.w3.org/2000/svg">
<path d="M263.28 191.013L259.472 192.239L254.979 180.121L261.875 178.203L263.28 191.013Z" fill="#09090B" stroke="#27272A" stroke-width="0.5"/>
<path d="M266.209 188.418C266.277 187.603 266.226 186.925 265.349 186.874L264.111 186.806C263.642 186.806 263.308 187.117 262.935 187.377C260.096 189.351 258.926 186.801 257.823 186.806C256.404 186.806 257.32 191.335 257.252 191.573L255.703 196.826C255.567 197.267 255.839 198.211 256.314 198.336C256.398 198.358 256.483 198.37 256.574 198.37H272.983C275.59 198.37 275.624 195.175 274.549 194.949C269.715 193.953 267.809 192.37 266.215 191.217C266.215 191.217 266.113 189.679 266.215 188.423L266.209 188.418Z" fill="#27272A"/>
<path d="M222.087 191.181L218.063 191.384L216.668 178.652L223.888 177.986L222.087 191.181Z" fill="#09090B" stroke="#27272A" stroke-width="0.5"/>
<path d="M214.035 197.787H224.032C224.032 197.787 224.253 197.369 223.998 196.249C223.959 196.074 223.913 195.882 223.846 195.673C223.846 195.661 223.84 195.65 223.834 195.639C223.738 195.328 223.631 194.949 223.518 194.536C223.06 192.862 222.749 189.012 222.749 189.012C222.749 189.012 220.86 187.112 218.915 188.005C217.207 188.785 217.473 189.775 217.473 189.775C217.473 189.775 217.445 192.331 216.15 193.484C215.347 194.197 214.555 194.751 214.171 195.639C214.097 195.803 214.041 195.984 214.001 196.17C214.001 196.193 213.99 196.215 213.99 196.244C213.911 196.673 213.916 197.171 214.029 197.782L214.035 197.787Z" fill="#27272A"/>
<path d="M213.848 85.4724L235.432 85.6646L248.567 85.2462C248.567 85.2462 257.795 127.174 258.575 135.068C259.356 142.961 266.084 184.539 266.084 184.539L255.867 186.902C255.867 186.902 244.253 142.447 243.416 138.178C242.686 134.451 234.617 110.584 232.553 104.517C232.344 105.761 232.135 107.01 231.914 108.249C231.394 113.847 229.721 131.686 228.991 138.325C228.991 138.325 227.408 176.255 225.576 187.264L215.963 187.281C214.697 171.647 213.882 116.725 213.882 116.725C213.17 104.794 213.837 85.4724 213.837 85.4724H213.848Z" fill="#27272A"/>
<path d="M241.769 13.0668C245.588 14.0917 249.315 15.2686 253.024 16.6693V16.6703C255.759 17.7196 258.454 18.7985 261.052 20.2572L261.571 20.5541C263.097 21.4868 264.572 22.4863 265.208 24.3051V24.306C265.676 25.7355 265.397 26.8652 264.749 27.8373C264.09 28.8247 263.051 29.6509 261.986 30.4437C256.142 34.646 249.703 37.6012 243.061 40.2992L240.074 32.9047C243.482 31.4366 246.978 29.8999 250.346 28.3295H250.355L250.407 28.3041C252.284 27.3909 254.183 26.5095 255.989 25.4984L256.353 25.2943L256.002 25.0697C253.71 23.6015 250.769 22.0182 247.904 20.5199C245.122 19.065 242.415 17.6907 240.42 16.5726L241.769 13.0668Z" fill="#09090B" stroke="#27272A" stroke-width="0.5"/>
<path d="M241.075 8.62671C241.457 8.90275 241.733 9.31506 241.838 9.77515V9.77612L242.932 14.4714L242.395 17.4724C242.319 17.477 242.223 17.4828 242.111 17.4871C241.818 17.4982 241.42 17.5039 240.995 17.4832C240.569 17.4623 240.124 17.4155 239.736 17.323C239.341 17.2287 239.038 17.0945 238.863 16.9246C238.786 16.849 238.697 16.7102 238.604 16.5007C238.514 16.2956 238.428 16.0415 238.348 15.7527C238.186 15.1749 238.052 14.4787 237.944 13.8035C237.837 13.1294 237.758 12.4814 237.705 12.0017C237.679 11.7621 237.658 11.5648 237.645 11.4275C237.639 11.3588 237.634 11.3047 237.631 11.2683C237.629 11.2504 237.628 11.2365 237.627 11.2273C237.626 11.223 237.626 11.2198 237.626 11.2175C237.626 11.2164 237.626 11.2142 237.626 11.2136L237.614 11.0779L237.494 11.0134H237.492C237.491 11.0129 237.489 11.0116 237.487 11.0105C237.483 11.0081 237.476 11.0044 237.468 10.9998C237.45 10.9902 237.423 10.9762 237.39 10.9578C237.322 10.9207 237.224 10.8657 237.103 10.7976C236.863 10.6614 236.535 10.4699 236.182 10.2488C235.466 9.79911 234.691 9.25084 234.331 8.80444C233.971 8.35895 234.033 8.15187 234.067 8.08374C234.087 8.04435 234.118 8.01308 234.149 7.98804L237.1 9.37964L237.392 8.98608L237.391 8.98511C237.391 8.98433 237.39 8.98267 237.389 8.9812C237.386 8.97816 237.381 8.97337 237.376 8.96753C237.365 8.95586 237.35 8.93854 237.33 8.91675C237.29 8.87276 237.231 8.80939 237.158 8.7312C237.012 8.57481 236.808 8.35897 236.576 8.12183C236.115 7.65085 235.531 7.08358 235.068 6.73218C234.689 6.44436 234.608 6.13354 234.608 5.9021C234.608 5.83321 234.616 5.76955 234.627 5.71362L235.719 6.14624L236.489 6.4519L236.016 5.77124C235.813 5.48044 235.815 5.20657 235.865 4.99976C235.875 4.95841 235.887 4.91992 235.9 4.88452L241.075 8.62671Z" fill="#09090B" stroke="#27272A" stroke-width="0.5"/>
<path d="M257.515 37.1115L255.322 38.3331C254.336 38.8827 252.796 39.8806 251.128 40.9845L247.74 43.2365C246.215 44.2455 244.816 45.151 243.864 45.7013L238.106 32.5978C238.131 32.5588 238.163 32.5114 238.199 32.4572C238.301 32.3048 238.44 32.102 238.587 31.8995C238.735 31.696 238.889 31.498 239.021 31.3517C239.087 31.278 239.143 31.2231 239.186 31.1886C239.198 31.1792 239.207 31.1728 239.214 31.1681C239.309 31.1699 239.451 31.2057 239.597 31.2589C239.671 31.2858 239.736 31.3142 239.783 31.3351C239.807 31.3454 239.826 31.3536 239.838 31.3595L239.856 31.3683L239.964 31.422L240.073 31.3702C243.074 29.9446 246.19 28.5869 248.555 27.5861C249.737 27.0858 250.732 26.6748 251.431 26.3888C251.78 26.2458 252.056 26.1347 252.244 26.0587C252.269 26.0487 252.292 26.0382 252.314 26.0294L257.515 37.1115Z" fill="#09090B" stroke="#27272A" stroke-width="0.5"/>
<path d="M231.689 31.8354H231.692L242.009 31.9302L244.953 59.0024L244.954 59.0122L249.11 85.3784C249.088 85.3984 249.051 85.4287 248.989 85.4653C248.835 85.5564 248.587 85.6675 248.247 85.7935C247.57 86.0441 246.565 86.3412 245.308 86.6509C242.797 87.2699 239.301 87.934 235.467 88.3706C231.632 88.8072 227.464 89.0155 223.61 88.7261C219.798 88.4397 216.312 87.6658 213.756 86.1616C213.755 86.1328 213.754 86.0984 213.753 86.0591C213.748 85.9188 213.741 85.713 213.732 85.4507C213.715 84.9258 213.689 84.1742 213.659 83.269C213.598 81.4586 213.515 79.0318 213.429 76.5669C213.258 71.6432 213.073 66.552 213.018 65.9302V65.9292C212.972 65.4208 212.232 60.3431 211.505 55.4067C211.141 52.9355 210.78 50.4955 210.51 48.6733C210.374 47.7625 210.262 47.0059 210.183 46.4771C210.144 46.2126 210.114 46.0042 210.093 45.8628C210.082 45.7923 210.074 45.7381 210.068 45.7017C210.068 45.6996 210.067 45.6977 210.067 45.6958L215.076 32.0884L223.619 31.6382L231.689 31.8354Z" fill="#09090B" stroke="#27272A" stroke-width="0.4"/>
<path d="M221.336 21.2987L221.323 21.2606C221.106 20.6076 220.881 19.9929 220.662 19.4315L229.042 24.118C229.008 25.184 229.205 26.6484 229.472 28.0448C229.753 29.517 230.115 30.9397 230.375 31.7889L230.382 31.8104L230.393 31.8309V31.8319C230.393 31.8331 230.395 31.8358 230.396 31.8387C230.399 31.8446 230.404 31.854 230.41 31.8661C230.422 31.8907 230.439 31.928 230.46 31.9755C230.502 32.071 230.559 32.2086 230.614 32.3749C230.726 32.7104 230.832 33.1495 230.819 33.5887C230.807 34.0245 230.68 34.4453 230.347 34.7772C230.053 35.0695 229.573 35.3172 228.801 35.4257L228.451 35.4637C227.769 35.5153 227.065 35.3081 226.382 34.9491C225.699 34.5904 225.051 34.088 224.488 33.5721C223.926 33.0572 223.455 32.5342 223.124 32.1395C222.959 31.9424 222.829 31.7779 222.74 31.663C222.709 31.6223 222.683 31.5879 222.662 31.5604C222.664 31.5375 222.668 31.5107 222.671 31.4803C222.681 31.3624 222.693 31.1885 222.7 30.9608C222.715 30.5048 222.711 29.8324 222.64 28.9598C222.499 27.2502 222.094 24.7718 221.055 21.6405C221.09 21.6221 221.125 21.6044 221.152 21.5897C221.168 21.5811 221.183 21.5721 221.195 21.5653C221.201 21.5622 221.209 21.5575 221.217 21.5526C221.22 21.5505 221.229 21.5452 221.238 21.538C221.243 21.5346 221.254 21.5256 221.267 21.5126C221.273 21.506 221.285 21.4921 221.298 21.4725C221.307 21.4577 221.336 21.4093 221.336 21.3397V21.2987Z" fill="#09090B" stroke="#27272A" stroke-width="0.5"/>
<path opacity="0.2" d="M229.579 26.8863L224.417 25.959C224.948 27.5309 226.441 29.3517 230.003 29.3517C230.003 29.3517 229.573 27.5875 229.579 26.892V26.8863Z" fill="black"/>
<path d="M234.77 8.36221C235.906 10.3696 236.472 14.8705 233.158 14.0732C229.845 13.276 232.819 4.90732 234.77 8.36221Z" fill="#27272A"/>
<path d="M220.168 14.5223C219.346 9.09107 224.343 4.44941 229.796 6.06824C232.544 6.8837 234.309 9.29334 235.292 12.1893C236.275 15.0825 236.46 18.4127 236.083 20.9696C235.259 26.5684 228.888 29.5458 224.391 25.7616C221.75 23.5394 221.146 20.9131 220.469 16.5184L220.168 14.5223Z" fill="#09090B" stroke="#27272A" stroke-width="0.5"/>
<path d="M218.163 7.20869C218.66 4.03653 222.528 1.96698 224.841 3.36364C225.186 3.57286 222.805 4.63025 223.076 4.50585L223.308 9.09728C222.969 9.05205 222.347 9.49875 222.098 10.5674C222.098 10.5674 223.455 16.4594 221.227 19.1792C214.883 16.9061 214.097 8.88241 218.163 7.20869Z" fill="#27272A"/>
<path d="M220.179 16.1833C220.989 16.1562 221.697 16.6386 222.252 17.363C222.806 18.0856 223.176 19.0106 223.311 19.7664C223.459 20.5933 223.273 21.333 222.884 21.7791C222.51 22.208 221.915 22.4037 221.127 22.0964C220.029 21.6649 218.915 20.7242 218.361 19.4031V19.4011L218.343 19.3562C218.04 18.618 218.098 17.8347 218.431 17.2341C218.76 16.6385 219.363 16.214 220.179 16.1833Z" fill="#09090B" stroke="#27272A" stroke-width="0.5"/>
<path d="M228.132 15.4757C228.182 16.0524 228.527 16.4878 228.906 16.4539C229.285 16.4143 229.545 15.9167 229.494 15.3399C229.443 14.7632 229.098 14.3278 228.72 14.3617C228.341 14.4013 228.081 14.8989 228.132 15.4757Z" fill="#27272A"/>
<path d="M233.797 15.091C233.848 15.6678 234.193 16.1032 234.572 16.0692C234.951 16.0296 235.211 15.5321 235.16 14.9553C235.109 14.3785 234.764 13.9431 234.385 13.9771C234.007 14.0167 233.746 14.5143 233.797 15.091Z" fill="#27272A"/>
<path d="M231.931 14.9328C231.931 14.9328 234.012 17.6356 234.696 18.7496C233.956 19.5468 232.548 19.332 232.548 19.332L231.931 14.9271V14.9328Z" fill="#27272A"/>
<path d="M228.742 12.0715C228.646 12.0659 228.55 12.1111 228.499 12.1959C227.826 13.2081 226.831 13.2137 226.82 13.2137C226.673 13.2137 226.548 13.3325 226.543 13.4851C226.543 13.6322 226.661 13.7566 226.808 13.7566C226.859 13.7566 228.115 13.7452 228.946 12.49C229.031 12.3656 228.997 12.1959 228.872 12.1168C228.833 12.0885 228.787 12.0772 228.742 12.0715Z" fill="#27272A"/>
<path d="M233.899 11.1895C233.848 11.1951 233.797 11.2177 233.758 11.2517C233.645 11.3478 233.628 11.5174 233.718 11.6362C234.668 12.7897 235.906 12.6427 235.963 12.6483C236.11 12.6313 236.217 12.4956 236.2 12.3486C236.184 12.2016 236.053 12.0942 235.906 12.1111C235.856 12.1168 234.9 12.2186 234.137 11.2912C234.074 11.2177 233.99 11.1838 233.899 11.1951V11.1895Z" fill="#27272A"/>
<path d="M238.66 5.59153C238.389 4.14964 236.828 3.01309 235.409 3.39194C235.867 2.45329 235.454 1.18669 234.532 0.689096C233.611 0.197156 232.327 0.559043 231.801 1.45811C231.75 0.581661 230.812 -0.0629539 229.935 0.00489986C229.059 0.0727536 228.307 0.706059 227.866 1.45811C227.594 1.92177 227.397 2.45894 226.961 2.7756C226.277 3.27319 225.338 3.01309 224.501 2.95089C223.088 2.84345 221.64 3.38063 220.639 4.38147C219.639 5.38231 219.101 6.83551 219.209 8.24348C218.429 8.45835 218.038 9.08599 217.535 9.71364L221.855 10.4035C223.065 8.14169 226.333 9.88893 227.973 10.5109C229.149 10.9576 230.309 10.9916 231.202 10.9576C232.095 10.9237 232.502 10.2678 232.514 9.37437C233.882 9.9059 235.488 9.93982 236.777 9.23301C238.067 8.5262 238.937 7.0108 238.66 5.5689V5.59153Z" fill="#27272A"/>
<path d="M218.423 7.46883C218.423 7.46883 218.366 7.46318 218.344 7.44622C217.501 6.86946 216.5 6.50192 215.737 6.49061C215.658 6.49061 215.596 6.42276 215.596 6.34925C215.596 6.27574 215.675 6.21919 215.737 6.20789C216.568 6.22485 217.597 6.59804 218.496 7.21438C218.559 7.25962 218.576 7.34444 218.536 7.41229C218.508 7.45187 218.462 7.47449 218.417 7.47449L218.423 7.46883Z" fill="#27272A"/>
<path d="M218.315 7.41227C218.27 7.41227 218.225 7.38965 218.197 7.35007C217.563 6.40577 217.292 5.21834 217.45 4.09309C217.462 4.01393 217.535 3.96304 217.609 3.97435C217.688 3.98566 217.739 4.05916 217.727 4.13267C217.575 5.19006 217.829 6.30399 218.428 7.19175C218.474 7.25395 218.457 7.34441 218.389 7.38965C218.366 7.40661 218.338 7.41227 218.31 7.41227H218.315Z" fill="#27272A"/>
<path d="M229.919 20.168C230.612 20.1513 231.315 20.4505 231.734 20.9961V20.9971C232.129 21.5056 232.173 22.1908 232.007 22.8213L232.005 22.8174L231.968 22.9355C231.905 23.1375 231.732 23.232 231.564 23.2754C231.48 23.2969 231.399 23.3049 231.34 23.3076C231.311 23.309 231.286 23.3089 231.27 23.3086C231.262 23.3084 231.255 23.3088 231.251 23.3086C231.249 23.3085 231.247 23.3077 231.246 23.3076H231.244C231.156 23.3024 231.07 23.2767 230.982 23.2422C230.937 23.2249 230.893 23.2059 230.848 23.1865C230.803 23.1673 230.757 23.1473 230.71 23.1299H230.711C230.323 22.9792 229.901 22.9683 229.501 22.957H229.502C229.099 22.94 228.69 22.923 228.333 22.7637H228.332C228.02 22.6293 227.749 22.3585 227.675 22.041L227.656 21.9023C227.64 21.5729 227.837 21.2634 228.077 21.0117C228.561 20.5113 229.227 20.1847 229.919 20.168Z" fill="#09090B" stroke="#27272A" stroke-width="0.1"/>
<path d="M228.624 20.5137C228.793 20.5533 231.434 21.1188 231.558 21.0735C231.666 21.034 231.649 20.8643 231.643 20.8078C231.575 20.7343 231.507 20.6551 231.428 20.5929C231.406 20.5759 231.383 20.559 231.36 20.542C230.948 20.2423 230.433 20.0784 229.918 20.0897C229.455 20.101 229.019 20.2706 228.629 20.5137H228.624Z" fill="#27272A"/>
<path d="M230.444 22.3118C229.455 21.8424 227.713 22.2213 227.696 22.227C227.815 22.4871 228.052 22.7019 228.318 22.815C228.686 22.979 229.104 22.996 229.506 23.0129C229.907 23.0242 230.32 23.0355 230.699 23.1826C230.88 23.2504 231.055 23.3522 231.247 23.3635C231.247 23.3635 231.4 23.3748 231.57 23.3296C231.445 23.0808 231.134 22.6341 230.444 22.3061V22.3118Z" fill="#27272A"/>
<path opacity="0.2" d="M199.967 26.2981L196.698 25.45L200.934 25.6648L199.967 26.2981Z" fill="black"/>
<path d="M218.204 5.20471C218.255 5.42199 218.256 5.70855 218.052 6.01135L217.591 6.69495L218.353 6.38245L219.44 5.93811C219.451 5.99778 219.461 6.06613 219.461 6.14026C219.461 6.38469 219.377 6.70859 218.998 7.00647C218.535 7.3696 217.952 7.95716 217.491 8.44495C217.259 8.69044 217.055 8.91376 216.909 9.07581C216.836 9.15667 216.777 9.22261 216.737 9.26819C216.717 9.29093 216.701 9.30882 216.69 9.32092C216.685 9.32698 216.681 9.33242 216.678 9.33557L216.675 9.33948L216.674 9.34045L216.972 9.72913L219.919 8.29065C219.949 8.3165 219.98 8.34862 220.001 8.39026C220.039 8.46937 220.095 8.69115 219.735 9.15295C219.374 9.61572 218.599 10.1831 217.884 10.6481C217.531 10.8769 217.203 11.0755 216.963 11.2164C216.843 11.2868 216.744 11.3431 216.677 11.3815C216.643 11.4005 216.616 11.4156 216.598 11.4254C216.59 11.4302 216.583 11.4337 216.579 11.4362C216.577 11.4374 216.575 11.4385 216.574 11.4391H216.573L216.572 11.4401L216.46 11.5016L216.444 11.6295C216.444 11.63 216.444 11.6314 216.444 11.6324C216.444 11.6346 216.444 11.6379 216.443 11.6422C216.442 11.6508 216.44 11.6636 216.438 11.6803C216.434 11.7142 216.428 11.7646 216.42 11.8287C216.403 11.9571 216.377 12.1422 216.344 12.3668C216.279 12.8163 216.182 13.4241 216.058 14.0592C215.934 14.6953 215.784 15.3536 215.61 15.9059C215.523 16.1821 215.432 16.4279 215.338 16.6285C215.242 16.8325 215.15 16.9747 215.067 17.0582C214.882 17.2444 214.574 17.4121 214.19 17.5553C213.811 17.6966 213.38 17.8063 212.971 17.8893C212.563 17.972 212.182 18.0274 211.902 18.0621C211.816 18.0728 211.739 18.0796 211.675 18.0865L211.14 15.0006L212.928 9.05627L212.929 9.05432C213.014 8.7634 213.203 8.50982 213.459 8.33069L218.163 5.07288C218.177 5.11303 218.193 5.15682 218.204 5.20471ZM219.843 8.23889H219.841V8.23792L219.843 8.23889Z" fill="#09090B" stroke="#27272A" stroke-width="0.5"/>
<path d="M212.557 18.1737C210.949 19.2035 208.829 20.4821 206.605 21.8348C204.299 23.2378 201.885 24.7218 199.839 26.0907L199.484 26.328L199.865 26.5214C204.813 29.0318 210.91 31.5718 215.35 33.6171L212.25 40.9725C207.031 38.818 202.003 36.4379 197.087 33.6464H197.086C195.394 32.6759 193.743 31.6803 192.008 30.3837L191.999 30.3778L191.761 30.201C191.667 30.1296 191.567 30.0537 191.513 30.0145L191.499 30.0302L191.51 30.0145C191.022 29.689 190.595 29.1515 190.303 28.5428C190.011 27.9335 189.867 27.2774 189.918 26.7284H189.919V26.7245C190.037 25.2038 190.811 24.1313 191.854 23.2675C192.909 22.3935 194.207 21.7563 195.37 21.0858C200.424 18.479 205.613 16.4971 210.999 14.7587L212.557 18.1737Z" fill="#09090B" stroke="#27272A" stroke-width="0.5"/>
<path d="M202.781 27.7347C203.014 27.7974 203.361 27.8924 203.801 28.016C204.682 28.2633 205.936 28.6243 207.397 29.0648C209.955 29.836 213.145 30.8515 216.085 31.9301L217.327 32.3949C217.796 32.5756 218.108 32.8695 218.297 33.2474C218.488 33.6311 218.562 34.1192 218.52 34.6937C218.436 35.8469 217.888 37.2851 217.028 38.7494C216.171 40.209 215.017 41.6739 213.744 42.8783C212.5 44.0553 211.157 44.969 209.882 45.3988L196.966 38.7592L202.637 27.6967C202.679 27.7076 202.727 27.7202 202.781 27.7347Z" fill="#09090B" stroke="#27272A" stroke-width="0.5"/>
<path d="M324 198.405H0V198.567H324V198.405Z" fill="#27272A"/>
<path d="M196.707 153.674H62.9078C61.2221 153.64 59.607 152.99 58.3686 151.846C57.1301 150.702 56.3543 149.144 56.1881 147.466L48.6518 56.8818C48.5713 56.0906 48.6591 55.2913 48.9094 54.5364C49.1598 53.7815 49.567 53.0882 50.1043 52.5019C50.6417 51.9156 51.297 51.4496 52.0272 51.1345C52.7574 50.8195 53.5461 50.6625 54.3413 50.6739H188.134C189.82 50.7068 191.436 51.3567 192.676 52.5007C193.915 53.6447 194.692 55.2034 194.86 56.8818L202.396 147.453C202.478 148.245 202.391 149.045 202.141 149.801C201.891 150.557 201.484 151.252 200.947 151.839C200.409 152.427 199.754 152.894 199.023 153.21C198.292 153.526 197.503 153.684 196.707 153.674Z" fill="#09090B"/>
<path d="M196.707 153.933H62.9078C61.1563 153.904 59.4767 153.232 58.1894 152.044C56.9021 150.856 56.0974 149.235 55.9288 147.492L48.3926 56.9141C48.3165 56.0877 48.4138 55.2545 48.6783 54.4678C48.9427 53.6811 49.3685 52.9584 49.9284 52.3457C50.4854 51.729 51.1665 51.2371 51.927 50.902C52.6875 50.567 53.5102 50.3965 54.3413 50.4017H188.134C189.893 50.4296 191.579 51.1068 192.868 52.3031C194.158 53.4993 194.96 55.1301 195.119 56.8817L202.649 147.453C202.732 148.279 202.64 149.113 202.378 149.901C202.116 150.689 201.691 151.412 201.13 152.024C200.569 152.636 199.885 153.122 199.122 153.451C198.36 153.78 197.537 153.944 196.707 153.933ZM54.3413 50.946C53.5806 50.9337 52.826 51.0828 52.1273 51.3836C51.4286 51.6844 50.8016 52.13 50.2878 52.691C49.7739 53.252 49.385 53.9156 49.1465 54.638C48.9081 55.3603 48.8256 56.1251 48.9045 56.8817L56.4408 147.446C56.6011 149.063 57.3498 150.564 58.5445 151.664C59.7393 152.764 61.2967 153.387 62.9208 153.414H196.707C197.466 153.426 198.218 153.276 198.915 152.976C199.612 152.675 200.238 152.231 200.751 151.671C201.264 151.112 201.652 150.45 201.891 149.73C202.13 149.009 202.214 148.247 202.137 147.492L194.601 56.9141C194.442 55.2973 193.694 53.7954 192.499 52.6948C191.304 51.5941 189.745 50.9717 188.121 50.946H54.3413Z" fill="#27272A"/>
<path d="M188.134 50.6868H54.3413C53.5472 50.6756 52.7598 50.8323 52.0306 51.1466C51.3013 51.4608 50.6467 51.9256 50.1096 52.5105C49.5724 53.0953 49.1649 53.7871 48.9137 54.5404C48.6625 55.2937 48.5732 56.0915 48.6518 56.8817H194.86C194.689 55.2057 193.911 53.6501 192.672 52.5088C191.432 51.3674 189.818 50.7193 188.134 50.6868Z" fill="#27272A"/>
<path d="M57.4711 53.7908C57.4895 53.9615 57.4714 54.1343 57.418 54.2975C57.3645 54.4607 57.277 54.6107 57.1612 54.7376C57.0454 54.8644 56.9039 54.9652 56.7462 55.0332C56.5885 55.1012 56.4181 55.135 56.2464 55.1321C55.8824 55.1244 55.5337 54.9838 55.2663 54.7366C54.9989 54.4895 54.8312 54.1531 54.7949 53.7908C54.7775 53.6202 54.7964 53.4479 54.8502 53.2851C54.904 53.1223 54.9916 52.9728 55.1072 52.8462C55.2228 52.7196 55.3638 52.6188 55.5211 52.5504C55.6783 52.482 55.8482 52.4476 56.0196 52.4494C56.3845 52.4543 56.7347 52.594 57.0027 52.8416C57.2707 53.0893 57.4375 53.4274 57.4711 53.7908Z" fill="#09090B"/>
<path d="M62.9143 53.7908C62.9327 53.9615 62.9146 54.1343 62.8612 54.2975C62.8077 54.4607 62.7202 54.6107 62.6044 54.7376C62.4886 54.8644 62.3471 54.9652 62.1894 55.0332C62.0317 55.1012 61.8613 55.135 61.6896 55.1321C61.3301 55.1183 60.9877 54.9748 60.7257 54.7283C60.4637 54.4817 60.2997 54.1488 60.264 53.7908C60.2467 53.6202 60.2655 53.4479 60.3193 53.2851C60.3732 53.1223 60.4607 52.9728 60.5763 52.8462C60.6919 52.7196 60.833 52.6188 60.9902 52.5504C61.1474 52.482 61.3173 52.4476 61.4887 52.4494C61.8491 52.4605 62.1929 52.6031 62.4555 52.8501C62.7181 53.0972 62.8813 53.4317 62.9143 53.7908Z" fill="#09090B"/>
<path d="M68.3575 53.7908C68.3759 53.9615 68.3578 54.1343 68.3044 54.2975C68.2509 54.4607 68.1634 54.6107 68.0476 54.7376C67.9318 54.8644 67.7903 54.9652 67.6326 55.0332C67.4749 55.1012 67.3045 55.135 67.1328 55.1321C66.7688 55.1244 66.4202 54.9838 66.1527 54.7366C65.8853 54.4895 65.7176 54.1531 65.6813 53.7908C65.664 53.6202 65.6828 53.4479 65.7366 53.2851C65.7905 53.1223 65.878 52.9728 65.9936 52.8462C66.1092 52.7196 66.2503 52.6188 66.4075 52.5504C66.5647 52.482 66.7346 52.4476 66.906 52.4494C67.2709 52.4543 67.6211 52.594 67.8891 52.8416C68.1571 53.0893 68.324 53.4274 68.3575 53.7908Z" fill="#09090B"/>
<path d="M162.311 69.2586L129.717 116.563C128.699 118.04 128.077 119.754 127.911 121.541C127.745 123.327 128.04 125.127 128.768 126.767C129.496 128.406 130.633 129.832 132.07 130.907C133.507 131.982 135.195 132.67 136.974 132.905L196.888 140.882C198.773 141.133 200.69 140.867 202.434 140.112C204.179 139.358 205.686 138.143 206.794 136.598C207.901 135.053 208.568 133.236 208.722 131.342C208.877 129.447 208.514 127.546 207.671 125.842L180.351 70.5416C179.54 68.9034 178.315 67.5056 176.798 66.4869C175.28 65.4682 173.522 64.8641 171.699 64.7344C169.875 64.6047 168.05 64.954 166.403 65.7476C164.756 66.5412 163.346 67.7516 162.311 69.2586Z" fill="#27272A"/>
<path d="M138.393 128.68C137.311 128.533 136.282 128.121 135.398 127.48C134.514 126.838 133.802 125.989 133.326 125.006C132.835 124.077 132.604 123.033 132.658 121.983C132.711 120.934 133.047 119.918 133.631 119.044L166.309 71.5978C166.9 70.7515 167.717 70.0886 168.667 69.6852C169.617 69.2818 170.662 69.1542 171.681 69.3169C172.764 69.4629 173.793 69.8749 174.677 70.5161C175.562 71.1573 176.273 72.0076 176.749 72.991L204.12 128.427C204.611 129.356 204.842 130.401 204.788 131.45C204.735 132.5 204.399 133.515 203.815 134.389C203.226 135.237 202.409 135.902 201.459 136.306C200.509 136.711 199.463 136.839 198.444 136.676L138.393 128.68Z" fill="#09090B"/>
<path d="M168.901 86.0871L172.718 86.5926C173.911 86.7609 175.001 87.3625 175.779 88.2828C176.557 89.2031 176.969 90.3775 176.936 91.5822L176.677 96.5588C176.671 96.7393 176.651 96.919 176.619 97.0967L173.904 112.098C173.709 113.132 173.119 114.049 172.259 114.654C171.398 115.259 170.335 115.505 169.296 115.338C168.194 115.181 167.177 114.656 166.411 113.848C165.645 113.039 165.175 111.995 165.078 110.886L163.983 95.3859C163.97 95.2069 163.97 95.0271 163.983 94.8481L164.236 89.865C164.263 89.2989 164.41 88.7449 164.666 88.2394C164.922 87.7339 165.282 87.2882 165.723 86.9316C166.163 86.5749 166.674 86.3154 167.222 86.1698C167.769 86.0243 168.342 85.9961 168.901 86.0871ZM168.597 119.498L169.633 119.634C170.701 119.785 171.677 120.323 172.373 121.146C173.07 121.97 173.439 123.021 173.411 124.099C173.389 124.607 173.258 125.105 173.03 125.56C172.801 126.014 172.479 126.415 172.084 126.737C171.689 127.058 171.231 127.292 170.74 127.424C170.248 127.555 169.734 127.582 169.232 127.501L168.195 127.358C167.127 127.209 166.152 126.672 165.456 125.85C164.759 125.027 164.389 123.977 164.417 122.9C164.439 122.391 164.568 121.893 164.797 121.438C165.025 120.983 165.347 120.581 165.742 120.26C166.137 119.938 166.596 119.704 167.088 119.573C167.58 119.442 168.094 119.416 168.597 119.498Z" fill="#27272A"/>
<path d="M85.212 76.4903L76.2631 110.426C75.9933 111.457 75.9895 112.54 76.2522 113.573C76.5149 114.606 77.0355 115.556 77.7653 116.333C78.495 117.11 79.41 117.689 80.4245 118.016C81.4391 118.343 82.52 118.407 83.5661 118.202L118.279 111.43C119.381 111.211 120.403 110.701 121.241 109.953C122.079 109.205 122.702 108.247 123.045 107.177C123.388 106.108 123.439 104.966 123.192 103.871C122.946 102.775 122.411 101.765 121.643 100.946L95.904 73.7622C95.1321 72.9419 94.1544 72.3434 93.0728 72.0289C91.9912 71.7144 90.8451 71.6954 89.7537 71.9739C88.6623 72.2524 87.6654 72.8182 86.8667 73.6124C86.068 74.4067 85.4966 75.4004 85.212 76.4903Z" fill="#27272A"/>
<path d="M83.4948 115.467C82.8574 115.583 82.2012 115.535 81.5872 115.329C80.9731 115.123 80.4212 114.765 79.9826 114.288C79.5301 113.829 79.2031 113.261 79.0329 112.64C78.8627 112.018 78.8551 111.363 79.0106 110.737L87.9789 76.7106C88.1344 76.116 88.4558 75.578 88.9056 75.1592C89.3554 74.7404 89.915 74.4581 90.5191 74.3454C91.157 74.2314 91.8134 74.2804 92.4273 74.4877C93.0413 74.695 93.593 75.0539 94.0312 75.5312L119.861 102.747C120.314 103.206 120.641 103.773 120.813 104.395C120.984 105.017 120.993 105.672 120.839 106.298C120.682 106.892 120.361 107.428 119.911 107.846C119.461 108.263 118.902 108.545 118.299 108.657L83.4948 115.467Z" fill="#09090B"/>
<path d="M92.2039 84.7003L94.4136 84.2662C95.127 84.151 95.8579 84.3037 96.4655 84.6949C97.0732 85.0861 97.5148 85.6881 97.7054 86.3851L98.496 89.3465C98.5259 89.4552 98.5497 89.5656 98.5673 89.677L99.9734 99.0017C100.083 99.6295 99.9403 100.275 99.5762 100.798C99.2121 101.321 98.6562 101.679 98.0294 101.795C97.3722 101.904 96.6974 101.784 96.1173 101.457C95.5373 101.129 95.0869 100.612 94.8413 99.9931L91.2514 91.1285C91.2078 91.0252 91.171 90.9191 91.1412 90.811L90.3247 87.8431C90.2186 87.5132 90.184 87.1645 90.2233 86.8201C90.2627 86.4758 90.375 86.1438 90.5529 85.8463C90.7308 85.5489 90.97 85.2928 91.2547 85.0952C91.5395 84.8976 91.863 84.7629 92.2039 84.7003ZM98.4571 104.322L99.0598 104.205C99.6988 104.094 100.356 104.227 100.902 104.578C101.448 104.928 101.843 105.47 102.008 106.097C102.099 106.389 102.128 106.697 102.093 107.001C102.057 107.305 101.957 107.598 101.801 107.861C101.644 108.124 101.434 108.351 101.184 108.527C100.934 108.703 100.65 108.825 100.349 108.884L99.7466 109C99.1084 109.111 98.4518 108.979 97.9061 108.63C97.3604 108.281 96.9652 107.741 96.7982 107.115C96.7069 106.822 96.6781 106.514 96.7138 106.21C96.7494 105.905 96.8487 105.612 97.0052 105.348C97.1616 105.085 97.3718 104.858 97.6219 104.681C97.8721 104.504 98.1566 104.381 98.4571 104.322Z" fill="#27272A"/>
</svg>
